Coordinates
version=1
nRows=10
nColumns=40
inDegrees=yes

Units are S.I. units (second, meters, Newtons, ...)
If the header above contains a line with 'inDegrees', this indicates whether rotational values are in degrees (yes) or radians (no).

endheader
time	pelvis_tilt	pelvis_list	pelvis_rotation	pelvis_tx	pelvis_ty	pelvis_tz	hip_flexion_r	hip_adduction_r	hip_rotation_r	knee_angle_r	knee_angle_r_beta	ankle_angle_r	subtalar_angle_r	mtp_angle_r	hip_flexion_l	hip_adduction_l	hip_rotation_l	knee_angle_l	knee_angle_l_beta	ankle_angle_l	subtalar_angle_l	mtp_angle_l	lumbar_extension	lumbar_bending	lumbar_rotation	arm_flex_r	arm_add_r	arm_rot_r	elbow_flex_r	pro_sup_r	wrist_flex_r	wrist_dev_r	arm_flex_l	arm_add_l	arm_rot_l	elbow_flex_l	pro_sup_l	wrist_flex_l	wrist_dev_l
      1.08800000	     19.70938598	      1.83087481	      2.41360609	      1.43771914	      0.97195010	     -0.31674493	      4.52604365	     -4.52936089	     -9.96786952	     25.66008431	      0.44785296	     -7.96284062	      0.00000000	      0.00000000	    -28.89899397	      4.66285362	      5.74213465	      9.15726179	      0.15982437	     -3.52235026	      0.00000000	      0.00000000	    -33.25093377	     -0.40341237	     -6.82028712	      1.38776626	    -15.36038541	      9.42028115	     43.95469160	     77.91851670	      0.00000000	      0.00000000	      8.94816852	    -27.84846468	     25.04296208	     57.20412074	     78.60378273	      0.00000000	      0.00000000
      1.09200000	     19.45264640	      1.96006488	      2.34738429	      1.44251019	      0.97073805	     -0.31673499	      5.16550693	     -4.63808199	    -10.17173736	     24.80519642	      0.43293235	     -8.03611102	      0.00000000	      0.00000000	    -28.99998321	      4.80881667	      5.64285974	      9.09844058	      0.15879774	     -3.37178424	      0.00000000	      0.00000000	    -33.06933189	     -0.54515785	     -6.85572143	      1.48988541	    -15.32828366	      9.48775261	     43.87790245	     77.89838852	      0.00000000	      0.00000000	      9.13259588	    -27.89442985	     25.08564180	     57.40150587	     78.59236562	      0.00000000	      0.00000000
      1.09600000	     19.21403251	      2.00459015	      2.32042471	      1.44704310	      0.96968568	     -0.31641215	      5.65679595	     -4.54876097	    -10.05301899	     23.59751482	      0.41185433	     -8.60194540	      0.00000000	      0.00000000	    -29.06715285	      4.83793212	      5.58628936	      9.10562731	      0.15892318	     -3.20579856	      0.00000000	      0.00000000	    -32.94121898	     -0.61412541	     -6.92732282	      1.75463071	    -15.20696310	      9.61687067	     43.58109080	     77.89485121	      0.00000000	      0.00000000	      9.35778003	    -27.95690458	     25.09485450	     57.46860024	     78.56603130	      0.00000000	      0.00000000
      1.10000000	     18.97160753	      2.15042973	      2.26282174	      1.45190746	      0.96838239	     -0.31639484	      6.30611559	     -4.67245214	    -10.27703295	     22.85003804	      0.39880840	     -8.55970048	      0.00000000	      0.00000000	    -29.14647389	      5.00626374	      5.34475132	      9.11839806	      0.15914607	     -3.05465405	      0.00000000	      0.00000000	    -32.75579970	     -0.77204586	     -6.94753003	      1.81510692	    -15.19745980	      9.73501797	     43.54682917	     77.90134553	      0.00000000	      0.00000000	      9.51855727	    -28.06506235	     25.22398536	     57.71615568	     78.55981162	      0.00000000	      0.00000000
      1.10400000	     18.78596638	      2.20192226	      2.21393257	      1.45646154	      0.96733909	     -0.31602449	      6.69245808	     -4.55228611	    -10.20462377	     21.59654275	      0.37693078	     -9.10323972	      0.00000000	      0.00000000	    -29.20463775	      5.05029558	      5.16546981	      9.25638010	      0.16155431	     -2.85943665	      0.00000000	      0.00000000	    -32.67312927	     -0.86855162	     -6.97921343	      2.08199540	    -15.08592275	      9.92631168	     43.22791893	     77.87492950	      0.00000000	      0.00000000	      9.78500515	    -28.13043047	     25.30609916	     57.80814594	     78.43782474	      0.00000000	      0.00000000
      1.10800000	     18.51543605	      2.32677005	      2.18357432	      1.46144472	      0.96604641	     -0.31599249	      7.38210553	     -4.64275811	    -10.40408632	     20.94416633	      0.36554466	     -9.05668884	      0.00000000	      0.00000000	    -29.25541101	      5.17750589	      4.95511842	      9.27252849	      0.16183615	     -2.69631167	      0.00000000	      0.00000000	    -32.47706157	     -0.99644921	     -7.05352522	      2.17822422	    -15.04429465	      9.98126833	     43.14470961	     77.87305615	      0.00000000	      0.00000000	      9.98017670	    -28.07324301	     25.21362250	     57.76212977	     78.41305896	      0.00000000	      0.00000000
      1.11200000	     18.24217313	      2.44550093	      2.04394777	      1.46595906	      0.96480413	     -0.31581162	      7.85154285	     -4.59424090	    -10.08721896	     19.67981943	      0.34347765	     -9.51272843	      0.00000000	      0.00000000	    -29.27263549	      5.34709033	      4.88830215	      9.29652093	      0.16225490	     -2.51267605	      0.00000000	      0.00000000	    -32.29957706	     -1.15702590	     -7.05898499	      2.47013486	    -14.97130384	     10.20683726	     42.82692573	     77.92610035	      0.00000000	      0.00000000	     10.21468775	    -28.05338677	     25.19195368	     57.72357516	     78.38779414	      0.00000000	      0.00000000
      1.11600000	     18.04224486	      2.48553730	      2.00277098	      1.47067672	      0.96352532	     -0.31549295	      8.35019280	     -4.49649525	    -10.02663999	     18.77023258	      0.32760236	     -9.67071984	      0.00000000	      0.00000000	    -29.32079528	      5.37949203	      4.59659804	      9.44767065	      0.16489296	     -2.28549922	      0.00000000	      0.00000000	    -32.18874664	     -1.23345545	     -7.10010372	      2.66778306	    -14.92094864	     10.38697079	     42.66835437	     77.96803181	      0.00000000	      0.00000000	     10.30260980	    -28.21717622	     25.23917937	     58.04393919	     78.24730243	      0.00000000	      0.00000000
      1.12000000	     17.77556089	      2.57325599	      1.90913342	      1.47556100	      0.96222597	     -0.31522870	      8.91266009	     -4.46663208	     -9.96502726	     17.86217354	      0.31175374	     -9.87734410	      0.00000000	      0.00000000	    -29.34502343	      5.48887499	      4.50137788	      9.51511850	      0.16607015	     -2.11395741	      0.00000000	      0.00000000	    -31.99345752	     -1.35423818	     -7.11188088	      2.84391918	    -14.85319732	     10.52650924	     42.43980744	     77.99582952	      0.00000000	      0.00000000	     10.54190749	    -28.11785002	     25.10701695	     57.89326925	     78.21776803	      0.00000000	      0.00000000
      1.12400000	     17.55491938	      2.64534721	      1.86880242	      1.48034711	      0.96096540	     -0.31492530	      9.37609058	     -4.39113084	     -9.85838215	     16.90078468	      0.29497434	    -10.16744128	      0.00000000	      0.00000000	    -29.37836745	      5.54748461	      4.37906075	      9.64718246	      0.16837510	     -1.94144041	      0.00000000	      0.00000000	    -31.86052784	     -1.46047775	     -7.13919750	      3.03170591	    -14.75188865	     10.65373200	     42.21284861	     78.03219127	      0.00000000	      0.00000000	     10.75787163	    -28.19297787	     25.18821406	     57.96833327	     78.24013484	      0.00000000	      0.00000000
